<svg id="visual" viewBox="0 0 1920 1080" width="1920" height="1080" xmlns="http://www.w3.org/2000/svg" xmlns:xlink="http://www.w3.org/1999/xlink" version="1.1"><rect width="1920" height="1080" fill="#d0bfe6"></rect><g><g transform="translate(123 238)"><path d="M0 -123.1L96.2 -76.8L120 27.4L53.4 110.9L-53.4 110.9L-120 27.4L-96.2 -76.8Z" fill="none" stroke="#a47cd9" stroke-width="3"></path></g><g transform="translate(1807 605)"><path d="M0 -95L74.3 -59.2L92.6 21.1L41.2 85.6L-41.2 85.6L-92.6 21.1L-74.3 -59.2Z" fill="none" stroke="#a47cd9" stroke-width="3"></path></g><g transform="translate(525 785)"><path d="M0 -76L59.4 -47.4L74.1 16.9L33 68.5L-33 68.5L-74.1 16.9L-59.4 -47.4Z" fill="none" stroke="#a47cd9" stroke-width="3"></path></g><g transform="translate(19 681)"><path d="M0 -92L71.9 -57.4L89.7 20.5L39.9 82.9L-39.9 82.9L-89.7 20.5L-71.9 -57.4Z" fill="none" stroke="#a47cd9" stroke-width="3"></path></g><g transform="translate(570 403)"><path d="M0 -64L50 -39.9L62.4 14.2L27.8 57.7L-27.8 57.7L-62.4 14.2L-50 -39.9Z" fill="none" stroke="#a47cd9" stroke-width="3"></path></g><g transform="translate(860 494)"><path d="M0 -80L62.5 -49.9L78 17.8L34.7 72.1L-34.7 72.1L-78 17.8L-62.5 -49.9Z" fill="none" stroke="#a47cd9" stroke-width="3"></path></g><g transform="translate(1042 259)"><path d="M0 -85L66.5 -53L82.9 18.9L36.9 76.6L-36.9 76.6L-82.9 18.9L-66.5 -53Z" fill="none" stroke="#a47cd9" stroke-width="3"></path></g></g></svg>